#N canvas 131 49 1427 832 10;
#X obj 20 14 cnv 15 900 28 empty empty Kaleidoloop\ playback\ harness 16 11 0 14 #e0e0e0 #000000 0;
#X obj 40 70 loadbang;
#X msg 40 110 \; pd dsp 1;
#X obj 250 80 hsl 200 18 0 1 0 0 knob1-1 empty knob1 -2 -9 0 10 #fcfcfc #000000 #000000 0 1;
#X obj 250 130 hsl 200 18 0 1 0 0 knob2-1 empty knob2 -2 -9 0 10 #fcfcfc #000000 #000000 0 1;
#X obj 540 80 bng 24 250 50 0 empty empty empty 20 7 0 10 #fcfcfc #000000 #000000;
#X msg 540 118 1 64;
#X obj 540 147 s keys;
#X obj 680 80 bng 24 250 50 0 empty empty empty 20 7 0 10 #fcfcfc #000000 #000000;
#X obj 680 120 openpanel;
#X obj 680 150 list prepend open;
#X obj 680 180 list trim;
#X obj 680 210 s waveplayer-open;
#X obj 990 635 catch~ tb-out;
#X obj 990 675 dac~;
#X text 248 62 knobs (0-1);
#X text 536 62 record;
#X text 676 62 load wav;
#X text 78 213 click a mode to load it (always slot 1):;
#X text 17 249 active:;
#X text 17 393 others:;
#X obj 73 244 bng 26 250 50 0 empty empty 1-smooth-vibrato 30 8 0 9 #fcfcfc #000000 #000000;
#X msg 73 301 \; pd-dut clear \; pd-dut obj 40 40 ../modes/1-smooth-vibrato/module 1 \; pd-dut obj 40 90 throw~ tb-out \; pd-dut connect 0 0 1 0 \; loadbang-1 bang;
#X obj 390 244 bng 26 250 50 0 empty empty 2-step-vibrato 30 8 0 9 #fcfcfc #000000 #000000;
#X msg 391 300 \; pd-dut clear \; pd-dut obj 40 40 ../modes/2-step-vibrato/module 1 \; pd-dut obj 40 90 throw~ tb-out \; pd-dut connect 0 0 1 0 \; loadbang-1 bang;
#X obj 700 244 bng 26 250 50 0 empty empty 3-fwd-back 30 8 0 9 #fcfcfc #000000 #000000;
#X msg 700 296 \; pd-dut clear \; pd-dut obj 40 40 ../modes/3-fwd-back/module 1 \; pd-dut obj 40 90 throw~ tb-out \; pd-dut connect 0 0 1 0 \; loadbang-1 bang;
#X obj 991 244 bng 26 250 50 0 empty empty 4-distortion-lowpass 30 8 0 9 #fcfcfc #000000 #000000;
#X msg 991 296 \; pd-dut clear \; pd-dut obj 40 40 ../modes/4-distortion-lowpass/module 1 \; pd-dut obj 40 90 throw~ tb-out \; pd-dut connect 0 0 1 0 \; loadbang-1 bang;
#X obj 991 380 bng 26 250 50 0 empty empty 5-reverb 30 8 0 9 #fcfcfc #000000 #000000;
#X msg 991 421 \; pd-dut clear \; pd-dut obj 40 40 ../modes/5-reverb/module 1 \; pd-dut obj 40 90 throw~ tb-out \; pd-dut connect 0 0 1 0 \; loadbang-1 bang;
#X obj 991 505 bng 26 250 50 0 empty empty 6-delay 30 8 0 9 #fcfcfc #000000 #000000;
#X msg 991 545 \; pd-dut clear \; pd-dut obj 40 40 ../modes/6-delay/module 1 \; pd-dut obj 40 90 throw~ tb-out \; pd-dut connect 0 0 1 0 \; loadbang-1 bang;
#X obj 74 389 bng 26 250 50 0 empty empty 7-just-play 30 8 0 9 #fcfcfc #000000 #000000;
#X msg 73 660 \; pd-dut clear \; pd-dut obj 40 40 ../modes/others/7-just-play/module 1 \; pd-dut obj 40 90 throw~ tb-out \; pd-dut connect 0 0 1 0 \; loadbang-1 bang;
#X obj 206 389 bng 26 250 50 0 empty empty 8-tape-stop 30 8 0 9 #fcfcfc #000000 #000000;
#X msg 205 582 \; pd-dut clear \; pd-dut obj 40 40 ../modes/others/8-tape-stop/module 1 \; pd-dut obj 40 90 throw~ tb-out \; pd-dut connect 0 0 1 0 \; loadbang-1 bang;
#X obj 338 389 bng 26 250 50 0 empty empty 9-tape-saturation 30 8 0 9 #fcfcfc #000000 #000000;
#X msg 338 502 \; pd-dut clear \; pd-dut obj 40 40 ../modes/others/9-tape-saturation/module 1 \; pd-dut obj 40 90 throw~ tb-out \; pd-dut connect 0 0 1 0 \; loadbang-1 bang;
#X obj 470 389 bng 26 250 50 0 empty empty 10-stutter 30 8 0 9 #fcfcfc #000000 #000000;
#X msg 470 423 \; pd-dut clear \; pd-dut obj 40 40 ../modes/others/10-stutter/module 1 \; pd-dut obj 40 90 throw~ tb-out \; pd-dut connect 0 0 1 0 \; loadbang-1 bang;
#N canvas 0 33 564 318 dut 0;
#X obj 40 40 ../modes/others/9-tape-saturation/module 1;
#X obj 40 90 throw~ tb-out;
#X connect 0 0 1 0;
#X restore 1085 635 pd dut;
#X connect 1 0 2 0;
#X connect 1 0 21 0;
#X connect 5 0 6 0;
#X connect 6 0 7 0;
#X connect 8 0 9 0;
#X connect 9 0 10 0;
#X connect 10 0 11 0;
#X connect 11 0 12 0;
#X connect 13 0 14 0;
#X connect 13 0 14 1;
#X connect 21 0 22 0;
#X connect 23 0 24 0;
#X connect 25 0 26 0;
#X connect 27 0 28 0;
#X connect 29 0 30 0;
#X connect 31 0 32 0;
#X connect 33 0 34 0;
#X connect 35 0 36 0;
#X connect 37 0 38 0;
#X connect 39 0 40 0;
