#N canvas 100 33 900 700 12;
#X obj 27 329 r loadbang-\$1;
#X obj 71 613 outlet~ outL-\$1;
#X obj 100 150 waveplayer~;
#X obj 24 91 r waveplayer-open;
#X obj 100 117 sig~ 1;
#X obj 100 181 delwrite~ stutter-buf-\$1 2000;
#X obj 131 224 r knob1-\$1;
#X obj 131 259 pow 2;
#X obj 131 294 * -1950;
#X obj 131 329 + 2000;
#X obj 71 373 metro 500;
#X obj 318 276 r knob2-\$1;
#X obj 318 311 / 1;
#X obj 226 277 random 1800;
#X obj 226 312 + 10;
#X obj 226 347 *;
#X obj 226 382 + 10;
#X obj 71 464 f 10;
#X obj 71 494 pack 0 5;
#X obj 71 524 line~;
#X obj 71 554 vd~ stutter-buf-\$1;
#X obj 71 583 *~ 1;
#X obj 71 413 t b b;
#X obj 118 412 s flashit;
#X text 213 224 retrigger rate;
#X text 401 279 randomness;
#X connect 0 0 10 0;
#X connect 2 0 5 0;
#X connect 3 0 2 0;
#X connect 4 0 2 0;
#X connect 6 0 7 0;
#X connect 7 0 8 0;
#X connect 8 0 9 0;
#X connect 9 0 10 1;
#X connect 10 0 22 0;
#X connect 10 0 23 0;
#X connect 11 0 12 0;
#X connect 12 0 15 1;
#X connect 13 0 14 0;
#X connect 14 0 15 0;
#X connect 15 0 16 0;
#X connect 16 0 17 1;
#X connect 17 0 18 0;
#X connect 18 0 19 0;
#X connect 19 0 20 0;
#X connect 20 0 21 0;
#X connect 21 0 1 0;
#X connect 22 0 17 0;
#X connect 22 1 13 0;
