#N canvas 53 114 1237 526 12;
#X obj 286 38 r loadbang-\$1;
#X obj 291 397 outlet~ outL-\$1;
#X obj 292 272 waveplayer~;
#X obj 332 230 r waveplayer-open;
#X obj 79 133 sig~ 1;
#X obj 79 168 lop~ 10;
#X obj 79 71 * 8;
#X obj 79 92 - 4;
#X obj 79 39 r knob2-\$1;
#X obj 292 230 +~;
#X obj 144 360 s flashit;
#X obj 79 307 threshold~ 1.01 100 0.99 100;
#X obj 291 355 *~ 1;
#X text 145 169 low-pass filter;
#X text 146 133 convert to signal;
#X obj 310 192 f 1;
#X connect 2 0 12 0;
#X connect 3 0 2 0;
#X connect 4 0 5 0;
#X connect 5 0 9 0;
#X connect 5 0 11 0;
#X connect 6 0 7 0;
#X connect 7 0 4 0;
#X connect 8 0 6 0;
#X connect 9 0 2 0;
#X connect 11 0 10 0;
#X connect 11 1 10 0;
#X connect 12 0 1 0;
#X connect 15 0 9 1;
