#N canvas 100 33 900 700 12;
#X obj 220 267 r loadbang-\$1;
#X obj 82 500 outlet~ outL-\$1;
#X obj 82 276 waveplayer~;
#X obj 33 212 r waveplayer-open;
#X obj 82 244 sig~ 1;
#X obj 220 75 r knob1-\$1;
#X obj 220 107 sig~;
#X obj 220 139 lop~ 8;
#X obj 220 171 *~;
#X obj 220 203 *~ 9;
#X obj 220 235 +~ 1;
#X obj 82 308 *~;
#X obj 82 340 clip~ -0.8 0.8;
#X obj 82 372 *~ 1.25;
#X obj 335 180 r knob2-\$1;
#X obj 335 212 pow 2;
#X obj 335 244 * 7800;
#X obj 335 276 + 200;
#X obj 335 308 pack 0 10;
#X obj 335 340 line~;
#X obj 82 404 lop~ 4000;
#X obj 82 436 *~ 0.7;
#X obj 82 468 *~ 1;
#X msg 274 327 4000 5;
#X text 301 74 drive;
#X text 412 179 tone;
#X connect 0 0 23 0;
#X connect 2 0 11 0;
#X connect 3 0 2 0;
#X connect 4 0 2 0;
#X connect 5 0 6 0;
#X connect 6 0 7 0;
#X connect 7 0 8 0;
#X connect 7 0 8 1;
#X connect 8 0 9 0;
#X connect 9 0 10 0;
#X connect 10 0 11 1;
#X connect 11 0 12 0;
#X connect 12 0 13 0;
#X connect 13 0 20 0;
#X connect 14 0 15 0;
#X connect 15 0 16 0;
#X connect 16 0 17 0;
#X connect 17 0 18 0;
#X connect 18 0 19 0;
#X connect 19 0 20 1;
#X connect 20 0 21 0;
#X connect 21 0 22 0;
#X connect 22 0 1 0;
#X connect 23 0 19 0;
