#N canvas 0 0 460 240 10;
#X obj 40 30 inlet~;
#X obj 40 95 rev3~ 90 3000 20;
#X obj 40 150 *~ 0.45;
#X obj 180 150 +~;
#X obj 180 200 outlet~;
#X text 150 28 Mac dev reverb for C&G freeverb~ (rev3~ from Pd extra).;
#X text 150 46 Note: roomsize/wet/dry knob messages are not wired (an;
#X text 150 60 abstraction can't share one inlet for signal + messages).;
#X connect 0 0 1 0;
#X connect 0 0 3 0;
#X connect 1 0 2 0;
#X connect 2 0 3 1;
#X connect 3 0 4 0;
