#N canvas 124 141 706 700 12;
#X obj 35 237 r loadbang-\$1;
#X obj 72 481 outlet~ outL-\$1;
#X obj 72 411 waveplayer~;
#X obj 35 307 r waveplayer-open;
#X obj 72 341 sig~ 1;
#X obj 72 376 *~;
#X obj 201 341 line~;
#X obj 58 88 r knob1-\$1;
#X obj 58 123 pow 2;
#X obj 58 158 * 1950;
#X obj 58 193 + 50;
#X obj 332 228 f 200;
#X obj 283 27 r knob2-\$1;
#X obj 283 62 pow 2;
#X obj 283 97 * -1950;
#X obj 283 132 + 2000;
#X obj 283 167 metro 500;
#X obj 283 202 t b b;
#X obj 201 268 pack 0 200;
#X obj 251 341 t b f, f 10;
#X obj 318 376 + 100;
#X obj 251 411 delay 500, f 10;
#X obj 281 268 pack 1 200;
#X obj 72 446 *~ 1;
#X msg 35 272 1 5;
#X obj 332 193 s flashit;
#X text 135 87 ramp time;
#X text 365 28 trigger rate;
#X connect 0 0 16 0;
#X connect 0 0 24 0;
#X connect 2 0 23 0;
#X connect 3 0 2 0;
#X connect 4 0 5 0;
#X connect 5 0 2 0;
#X connect 6 0 5 1;
#X connect 7 0 8 0;
#X connect 8 0 9 0;
#X connect 9 0 10 0;
#X connect 10 0 11 1;
#X connect 10 0 18 1;
#X connect 10 0 22 1;
#X connect 11 0 19 0;
#X connect 12 0 13 0;
#X connect 13 0 14 0;
#X connect 14 0 15 0;
#X connect 15 0 16 1;
#X connect 16 0 17 0;
#X connect 16 0 25 0;
#X connect 17 0 18 0;
#X connect 17 1 11 0;
#X connect 18 0 6 0;
#X connect 19 0 21 0;
#X connect 19 1 20 0;
#X connect 20 0 21 1;
#X connect 21 0 22 0;
#X connect 22 0 6 0;
#X connect 23 0 1 0;
#X connect 24 0 6 0;
